<mxfile host="app.diagrams.net" agent="Mozilla/5.0 (Windows NT 10.0; Win64; x64; rv:140.0) Gecko/20100101 Firefox/140.0" version="28.0.5">
  <diagram name="Pagina-1" id="VtQWf4U27ft-WzRDXPcL">
    <mxGraphModel dx="2940" dy="2147" grid="1" gridSize="10" guides="1" tooltips="1" connect="1" arrows="1" fold="1" page="1" pageScale="1" pageWidth="827" pageHeight="1169" math="0" shadow="0">
      <root>
        <mxCell id="0" />
        <mxCell id="1" parent="0" />
        <mxCell id="g2-eFo9dj6W3u_01nYDc-2" value="&lt;p style=&quot;margin:0px;margin-top:4px;text-align:center;&quot;&gt;&lt;b&gt;Login Page&lt;/b&gt;&lt;/p&gt;&lt;hr size=&quot;1&quot; style=&quot;border-style:solid;&quot;&gt;&lt;div style=&quot;height:2px;&quot;&gt;&lt;/div&gt;" style="verticalAlign=top;align=left;overflow=fill;html=1;whiteSpace=wrap;" parent="1" vertex="1">
          <mxGeometry x="50" y="-50" width="250" height="360" as="geometry" />
        </mxCell>
        <mxCell id="g2-eFo9dj6W3u_01nYDc-3" value="&lt;p style=&quot;margin:0px;margin-top:4px;text-align:center;&quot;&gt;&lt;b&gt;Home Page&lt;/b&gt;&lt;/p&gt;&lt;hr size=&quot;1&quot; style=&quot;border-style:solid;&quot;&gt;&lt;div style=&quot;height:2px;&quot;&gt;&lt;/div&gt;" style="verticalAlign=top;align=left;overflow=fill;html=1;whiteSpace=wrap;" parent="1" vertex="1">
          <mxGeometry x="360" y="-50" width="240" height="450" as="geometry" />
        </mxCell>
        <mxCell id="g2-eFo9dj6W3u_01nYDc-4" value="&lt;p style=&quot;margin:0px;margin-top:4px;text-align:center;&quot;&gt;&lt;b&gt;Registration Page&lt;/b&gt;&lt;/p&gt;&lt;hr size=&quot;1&quot; style=&quot;border-style:solid;&quot;&gt;&lt;div style=&quot;height:2px;&quot;&gt;&lt;/div&gt;" style="verticalAlign=top;align=left;overflow=fill;html=1;whiteSpace=wrap;" parent="1" vertex="1">
          <mxGeometry x="60" y="370" width="240" height="200" as="geometry" />
        </mxCell>
        <mxCell id="g2-eFo9dj6W3u_01nYDc-5" value="&lt;p style=&quot;margin:0px;margin-top:4px;text-align:center;&quot;&gt;&lt;b&gt;Playlist Page&lt;/b&gt;&lt;/p&gt;&lt;hr size=&quot;1&quot; style=&quot;border-style:solid;&quot;&gt;&lt;div style=&quot;height:2px;&quot;&gt;&lt;/div&gt;" style="verticalAlign=top;align=left;overflow=fill;html=1;whiteSpace=wrap;" parent="1" vertex="1">
          <mxGeometry x="660" y="-50" width="220" height="320" as="geometry" />
        </mxCell>
        <mxCell id="g2-eFo9dj6W3u_01nYDc-6" value="&lt;p style=&quot;margin:0px;margin-top:4px;text-align:center;&quot;&gt;&lt;b&gt;Song Page&lt;/b&gt;&lt;/p&gt;&lt;hr size=&quot;1&quot; style=&quot;border-style:solid;&quot;&gt;&lt;div style=&quot;height:2px;&quot;&gt;&lt;/div&gt;" style="verticalAlign=top;align=left;overflow=fill;html=1;whiteSpace=wrap;" parent="1" vertex="1">
          <mxGeometry x="660" y="360" width="220" height="160" as="geometry" />
        </mxCell>
        <mxCell id="g2-eFo9dj6W3u_01nYDc-10" value="&lt;div&gt;&amp;lt;&amp;lt;Form&amp;gt;&amp;gt;&lt;/div&gt;&lt;div&gt;Login Form&lt;/div&gt;" style="rounded=1;whiteSpace=wrap;html=1;" parent="1" vertex="1">
          <mxGeometry x="80" width="190" height="100" as="geometry" />
        </mxCell>
        <mxCell id="g2-eFo9dj6W3u_01nYDc-13" value="GoRegistrationPage" style="shape=hexagon;perimeter=hexagonPerimeter2;whiteSpace=wrap;html=1;fixedSize=1;" parent="1" vertex="1">
          <mxGeometry x="70" y="160" width="220" height="80" as="geometry" />
        </mxCell>
        <mxCell id="g2-eFo9dj6W3u_01nYDc-15" value="createUser" style="shape=hexagon;perimeter=hexagonPerimeter2;whiteSpace=wrap;html=1;fixedSize=1;" parent="1" vertex="1">
          <mxGeometry x="-200" y="290" width="200" height="80" as="geometry" />
        </mxCell>
        <mxCell id="g2-eFo9dj6W3u_01nYDc-18" value="&lt;div&gt;&amp;lt;&amp;lt;Form&amp;gt;&amp;gt;&lt;/div&gt;&lt;div&gt;Registration Form&lt;/div&gt;" style="rounded=1;whiteSpace=wrap;html=1;" parent="1" vertex="1">
          <mxGeometry x="90" y="420" width="180" height="100" as="geometry" />
        </mxCell>
        <mxCell id="g2-eFo9dj6W3u_01nYDc-19" value="&lt;div&gt;&amp;lt;&amp;lt;List&amp;gt;&amp;gt;&lt;/div&gt;&lt;div&gt;Playlist&lt;/div&gt;" style="rounded=1;whiteSpace=wrap;html=1;" parent="1" vertex="1">
          <mxGeometry x="385" width="190" height="100" as="geometry" />
        </mxCell>
        <mxCell id="g2-eFo9dj6W3u_01nYDc-20" value="&lt;div&gt;&amp;lt;&amp;lt;Form&amp;gt;&amp;gt;&lt;/div&gt;&lt;div&gt;CreatePlaylist&lt;/div&gt;" style="rounded=1;whiteSpace=wrap;html=1;" parent="1" vertex="1">
          <mxGeometry x="385" y="130" width="190" height="100" as="geometry" />
        </mxCell>
        <mxCell id="g2-eFo9dj6W3u_01nYDc-21" value="&lt;div&gt;&amp;lt;&amp;lt;Form&amp;gt;&amp;gt;&lt;/div&gt;&lt;div&gt;CreateSong&lt;/div&gt;" style="rounded=1;whiteSpace=wrap;html=1;" parent="1" vertex="1">
          <mxGeometry x="385" y="270" width="190" height="100" as="geometry" />
        </mxCell>
        <mxCell id="g2-eFo9dj6W3u_01nYDc-22" value="&lt;div&gt;&amp;lt;&amp;lt;Form&amp;gt;&amp;gt;&lt;/div&gt;&lt;div&gt;AddSong&lt;/div&gt;" style="rounded=1;whiteSpace=wrap;html=1;" parent="1" vertex="1">
          <mxGeometry x="675" width="190" height="100" as="geometry" />
        </mxCell>
        <mxCell id="g2-eFo9dj6W3u_01nYDc-23" value="&lt;div&gt;&lt;div&gt;&amp;lt;&amp;lt;List&amp;gt;&amp;gt;&lt;/div&gt;&lt;div&gt;Songs&lt;/div&gt;&lt;/div&gt;" style="rounded=1;whiteSpace=wrap;html=1;" parent="1" vertex="1">
          <mxGeometry x="675" y="130" width="190" height="100" as="geometry" />
        </mxCell>
        <mxCell id="g2-eFo9dj6W3u_01nYDc-24" value="&lt;div&gt;&amp;lt;&amp;lt;Info&amp;gt;&amp;gt;&lt;/div&gt;&lt;div&gt;SongInfo&lt;/div&gt;" style="rounded=1;whiteSpace=wrap;html=1;" parent="1" vertex="1">
          <mxGeometry x="675" y="400" width="190" height="100" as="geometry" />
        </mxCell>
        <mxCell id="g2-eFo9dj6W3u_01nYDc-26" value="" style="html=1;verticalAlign=bottom;startArrow=oval;startFill=1;endArrow=block;startSize=8;curved=0;rounded=0;entryX=0.5;entryY=1;entryDx=0;entryDy=0;exitX=0;exitY=0.25;exitDx=0;exitDy=0;" parent="1" source="g2-eFo9dj6W3u_01nYDc-18" target="g2-eFo9dj6W3u_01nYDc-15" edge="1">
          <mxGeometry width="60" relative="1" as="geometry">
            <mxPoint x="-70" y="480" as="sourcePoint" />
            <mxPoint x="310" y="360" as="targetPoint" />
            <Array as="points">
              <mxPoint x="-100" y="445" />
            </Array>
          </mxGeometry>
        </mxCell>
        <mxCell id="g2-eFo9dj6W3u_01nYDc-27" value="" style="html=1;verticalAlign=bottom;startArrow=oval;startFill=1;endArrow=block;startSize=8;curved=0;rounded=0;exitX=0.5;exitY=0;exitDx=0;exitDy=0;entryX=0;entryY=0.5;entryDx=0;entryDy=0;" parent="1" source="g2-eFo9dj6W3u_01nYDc-15" target="g2-eFo9dj6W3u_01nYDc-2" edge="1">
          <mxGeometry width="60" relative="1" as="geometry">
            <mxPoint x="-100" y="140" as="sourcePoint" />
            <mxPoint x="-40" y="140" as="targetPoint" />
            <Array as="points">
              <mxPoint x="-100" y="130" />
            </Array>
          </mxGeometry>
        </mxCell>
        <mxCell id="g2-eFo9dj6W3u_01nYDc-28" value="submit" style="html=1;verticalAlign=bottom;startArrow=oval;startFill=1;endArrow=block;startSize=8;curved=0;rounded=0;entryX=0;entryY=0.25;entryDx=0;entryDy=0;" parent="1" target="g2-eFo9dj6W3u_01nYDc-3" edge="1">
          <mxGeometry width="60" relative="1" as="geometry">
            <mxPoint x="270" y="70" as="sourcePoint" />
            <mxPoint x="330" y="70" as="targetPoint" />
          </mxGeometry>
        </mxCell>
        <mxCell id="g2-eFo9dj6W3u_01nYDc-29" value="select playlist" style="html=1;verticalAlign=bottom;startArrow=oval;startFill=1;endArrow=block;startSize=8;curved=0;rounded=0;exitX=1;exitY=0.5;exitDx=0;exitDy=0;entryX=0.02;entryY=0.311;entryDx=0;entryDy=0;entryPerimeter=0;" parent="1" source="g2-eFo9dj6W3u_01nYDc-19" target="g2-eFo9dj6W3u_01nYDc-5" edge="1">
          <mxGeometry width="60" relative="1" as="geometry">
            <mxPoint x="610" y="50" as="sourcePoint" />
            <mxPoint x="670" y="50" as="targetPoint" />
          </mxGeometry>
        </mxCell>
        <mxCell id="g2-eFo9dj6W3u_01nYDc-30" value="submit" style="html=1;verticalAlign=bottom;startArrow=oval;startFill=1;endArrow=block;startSize=8;curved=0;rounded=0;exitX=1;exitY=0.75;exitDx=0;exitDy=0;" parent="1" source="g2-eFo9dj6W3u_01nYDc-20" edge="1">
          <mxGeometry width="60" relative="1" as="geometry">
            <mxPoint x="1000" y="210" as="sourcePoint" />
            <mxPoint x="560" y="560" as="targetPoint" />
            <Array as="points">
              <mxPoint x="620" y="205" />
              <mxPoint x="620" y="560" />
            </Array>
          </mxGeometry>
        </mxCell>
        <mxCell id="g2-eFo9dj6W3u_01nYDc-31" value="submit" style="html=1;verticalAlign=bottom;startArrow=oval;startFill=1;endArrow=block;startSize=8;curved=0;rounded=0;" parent="1" edge="1">
          <mxGeometry width="60" relative="1" as="geometry">
            <mxPoint x="540" y="370" as="sourcePoint" />
            <mxPoint x="540" y="440" as="targetPoint" />
          </mxGeometry>
        </mxCell>
        <mxCell id="g2-eFo9dj6W3u_01nYDc-32" value="createSong" style="shape=hexagon;perimeter=hexagonPerimeter2;whiteSpace=wrap;html=1;fixedSize=1;" parent="1" vertex="1">
          <mxGeometry x="400" y="440" width="170" height="80" as="geometry" />
        </mxCell>
        <mxCell id="g2-eFo9dj6W3u_01nYDc-33" value="createPlaylist" style="shape=hexagon;perimeter=hexagonPerimeter2;whiteSpace=wrap;html=1;fixedSize=1;" parent="1" vertex="1">
          <mxGeometry x="400" y="545" width="170" height="80" as="geometry" />
        </mxCell>
        <mxCell id="g2-eFo9dj6W3u_01nYDc-34" value="addSong" style="shape=hexagon;perimeter=hexagonPerimeter2;whiteSpace=wrap;html=1;fixedSize=1;" parent="1" vertex="1">
          <mxGeometry x="700" y="-160" width="175" height="80" as="geometry" />
        </mxCell>
        <mxCell id="g2-eFo9dj6W3u_01nYDc-35" value="" style="html=1;verticalAlign=bottom;startArrow=oval;startFill=1;endArrow=block;startSize=8;curved=0;rounded=0;exitX=0;exitY=0.75;exitDx=0;exitDy=0;entryX=0.135;entryY=0.997;entryDx=0;entryDy=0;entryPerimeter=0;" parent="1" source="g2-eFo9dj6W3u_01nYDc-32" target="g2-eFo9dj6W3u_01nYDc-3" edge="1">
          <mxGeometry width="60" relative="1" as="geometry">
            <mxPoint x="370" y="430" as="sourcePoint" />
            <mxPoint x="430" y="430" as="targetPoint" />
            <Array as="points">
              <mxPoint x="390" y="498" />
            </Array>
          </mxGeometry>
        </mxCell>
        <mxCell id="g2-eFo9dj6W3u_01nYDc-36" value="" style="html=1;verticalAlign=bottom;startArrow=oval;startFill=1;endArrow=block;startSize=8;curved=0;rounded=0;exitX=0;exitY=0.75;exitDx=0;exitDy=0;entryX=0.048;entryY=0.991;entryDx=0;entryDy=0;entryPerimeter=0;" parent="1" source="g2-eFo9dj6W3u_01nYDc-33" target="g2-eFo9dj6W3u_01nYDc-3" edge="1">
          <mxGeometry width="60" relative="1" as="geometry">
            <mxPoint x="420" y="610" as="sourcePoint" />
            <mxPoint x="480" y="610" as="targetPoint" />
            <Array as="points">
              <mxPoint x="374" y="603" />
            </Array>
          </mxGeometry>
        </mxCell>
        <mxCell id="g2-eFo9dj6W3u_01nYDc-37" value="select song" style="html=1;verticalAlign=bottom;startArrow=oval;startFill=1;endArrow=block;startSize=8;curved=0;rounded=0;exitX=0.5;exitY=1;exitDx=0;exitDy=0;entryX=0.5;entryY=0;entryDx=0;entryDy=0;" parent="1" source="g2-eFo9dj6W3u_01nYDc-23" target="g2-eFo9dj6W3u_01nYDc-6" edge="1">
          <mxGeometry width="60" relative="1" as="geometry">
            <mxPoint x="860" y="70" as="sourcePoint" />
            <mxPoint x="920" y="70" as="targetPoint" />
          </mxGeometry>
        </mxCell>
        <mxCell id="g2-eFo9dj6W3u_01nYDc-38" value="submit" style="html=1;verticalAlign=bottom;startArrow=oval;startFill=1;endArrow=block;startSize=8;curved=0;rounded=0;exitX=1;exitY=0.5;exitDx=0;exitDy=0;entryX=1;entryY=0.75;entryDx=0;entryDy=0;" parent="1" source="g2-eFo9dj6W3u_01nYDc-22" target="g2-eFo9dj6W3u_01nYDc-34" edge="1">
          <mxGeometry width="60" relative="1" as="geometry">
            <mxPoint x="930" y="200" as="sourcePoint" />
            <mxPoint x="990" y="200" as="targetPoint" />
            <Array as="points">
              <mxPoint x="900" y="50" />
              <mxPoint x="900" y="-102" />
            </Array>
          </mxGeometry>
        </mxCell>
        <mxCell id="g2-eFo9dj6W3u_01nYDc-40" value="submit" style="text;html=1;align=center;verticalAlign=middle;resizable=0;points=[];autosize=1;strokeColor=none;fillColor=none;" parent="1" vertex="1">
          <mxGeometry x="-150" y="438" width="60" height="30" as="geometry" />
        </mxCell>
        <mxCell id="LXgKpz87_qiA2ow4_kJv-4" value="&lt;p style=&quot;margin:0px;margin-top:4px;text-align:center;&quot;&gt;&lt;b&gt;Sorting Page&lt;/b&gt;&lt;/p&gt;&lt;hr size=&quot;1&quot; style=&quot;border-style:solid;&quot;&gt;&lt;div style=&quot;height:2px;&quot;&gt;&lt;/div&gt;" style="verticalAlign=top;align=left;overflow=fill;html=1;whiteSpace=wrap;" vertex="1" parent="1">
          <mxGeometry x="940" y="-50" width="210" height="370" as="geometry" />
        </mxCell>
        <mxCell id="LXgKpz87_qiA2ow4_kJv-6" value="&lt;div&gt;&amp;lt;&amp;lt;List&amp;gt;&amp;gt;&lt;/div&gt;&lt;div&gt;Songs&lt;/div&gt;" style="rounded=1;whiteSpace=wrap;html=1;" vertex="1" parent="1">
          <mxGeometry x="950" width="190" height="100" as="geometry" />
        </mxCell>
        <mxCell id="LXgKpz87_qiA2ow4_kJv-7" value="Drag&amp;amp;Drop" style="shape=hexagon;perimeter=hexagonPerimeter2;whiteSpace=wrap;html=1;fixedSize=1;" vertex="1" parent="1">
          <mxGeometry x="970" y="120" width="160" height="80" as="geometry" />
        </mxCell>
        <mxCell id="LXgKpz87_qiA2ow4_kJv-9" value="Save" style="shape=hexagon;perimeter=hexagonPerimeter2;whiteSpace=wrap;html=1;fixedSize=1;" vertex="1" parent="1">
          <mxGeometry x="970" y="220" width="160" height="80" as="geometry" />
        </mxCell>
        <mxCell id="LXgKpz87_qiA2ow4_kJv-10" value="" style="endArrow=none;dashed=1;html=1;dashPattern=1 3;strokeWidth=2;rounded=0;fontSize=12;startSize=8;endSize=8;curved=1;strokeColor=#ff0000;" edge="1" parent="1">
          <mxGeometry width="50" height="50" relative="1" as="geometry">
            <mxPoint x="920" y="340" as="sourcePoint" />
            <mxPoint x="920" y="-90" as="targetPoint" />
          </mxGeometry>
        </mxCell>
        <mxCell id="LXgKpz87_qiA2ow4_kJv-11" value="" style="endArrow=none;dashed=1;html=1;dashPattern=1 3;strokeWidth=2;rounded=0;fontSize=12;startSize=8;endSize=8;curved=1;strokeColor=#ff0000;" edge="1" parent="1">
          <mxGeometry width="50" height="50" relative="1" as="geometry">
            <mxPoint x="920" y="-90" as="sourcePoint" />
            <mxPoint x="1180" y="-90" as="targetPoint" />
          </mxGeometry>
        </mxCell>
        <mxCell id="LXgKpz87_qiA2ow4_kJv-13" value="" style="endArrow=none;dashed=1;html=1;dashPattern=1 3;strokeWidth=2;rounded=0;fontSize=12;startSize=8;endSize=8;curved=1;strokeColor=#ff0000;" edge="1" parent="1">
          <mxGeometry width="50" height="50" relative="1" as="geometry">
            <mxPoint x="1180" y="340" as="sourcePoint" />
            <mxPoint x="1180" y="-90" as="targetPoint" />
          </mxGeometry>
        </mxCell>
        <mxCell id="LXgKpz87_qiA2ow4_kJv-14" value="" style="endArrow=none;dashed=1;html=1;dashPattern=1 3;strokeWidth=2;rounded=0;fontSize=12;startSize=8;endSize=8;curved=1;strokeColor=#ff0000;" edge="1" parent="1">
          <mxGeometry width="50" height="50" relative="1" as="geometry">
            <mxPoint x="920" y="340" as="sourcePoint" />
            <mxPoint x="1180" y="340" as="targetPoint" />
          </mxGeometry>
        </mxCell>
        <mxCell id="LXgKpz87_qiA2ow4_kJv-16" value="SOLO VERSIONE JAVASCRIPT" style="text;html=1;align=center;verticalAlign=middle;resizable=0;points=[];autosize=1;strokeColor=#ff0000;fillColor=none;fontSize=16;fontColor=#ff0000;" vertex="1" parent="1">
          <mxGeometry x="920" y="-130" width="260" height="30" as="geometry" />
        </mxCell>
        <mxCell id="LXgKpz87_qiA2ow4_kJv-18" value="" style="html=1;verticalAlign=bottom;startArrow=oval;startFill=1;endArrow=block;startSize=8;curved=0;rounded=0;fontSize=12;exitX=0;exitY=0.25;exitDx=0;exitDy=0;entryX=1;entryY=0.75;entryDx=0;entryDy=0;" edge="1" parent="1" source="LXgKpz87_qiA2ow4_kJv-9" target="g2-eFo9dj6W3u_01nYDc-22">
          <mxGeometry width="60" relative="1" as="geometry">
            <mxPoint x="980" y="240" as="sourcePoint" />
            <mxPoint x="1040" y="240" as="targetPoint" />
            <Array as="points">
              <mxPoint x="890" y="242" />
              <mxPoint x="890" y="75" />
            </Array>
          </mxGeometry>
        </mxCell>
        <mxCell id="LXgKpz87_qiA2ow4_kJv-19" value="&lt;div&gt;&lt;br&gt;&lt;/div&gt;&lt;div&gt;&lt;br&gt;&lt;/div&gt;" style="html=1;verticalAlign=bottom;startArrow=oval;startFill=1;endArrow=block;startSize=8;curved=0;rounded=0;fontSize=12;exitX=0;exitY=0.25;exitDx=0;exitDy=0;entryX=0.108;entryY=0.986;entryDx=0;entryDy=0;entryPerimeter=0;" edge="1" parent="1" source="LXgKpz87_qiA2ow4_kJv-7" target="LXgKpz87_qiA2ow4_kJv-6">
          <mxGeometry x="-0.2702" y="17" width="60" relative="1" as="geometry">
            <mxPoint x="950" y="120" as="sourcePoint" />
            <mxPoint x="1010" y="120" as="targetPoint" />
            <mxPoint as="offset" />
          </mxGeometry>
        </mxCell>
        <mxCell id="LXgKpz87_qiA2ow4_kJv-21" value="&lt;font style=&quot;font-size: 10px;&quot;&gt;drop&lt;/font&gt;" style="text;html=1;align=center;verticalAlign=middle;resizable=0;points=[];autosize=1;strokeColor=none;fillColor=none;fontSize=16;" vertex="1" parent="1">
          <mxGeometry x="940" y="100" width="40" height="30" as="geometry" />
        </mxCell>
      </root>
    </mxGraphModel>
  </diagram>
</mxfile>
